<?xml version="1.0" standalone="no"?>
<!DOCTYPE svg PUBLIC "-//W3C//DTD SVG 20010904//EN"
 "http://www.w3.org/TR/2001/REC-SVG-20010904/DTD/svg10.dtd">
<svg version="1.0" xmlns="http://www.w3.org/2000/svg"
 width="700.000000pt" height="700.000000pt" viewBox="0 0 700.000000 700.000000"
 preserveAspectRatio="xMidYMid meet">
<metadata>
Created by potrace 1.14, written by Peter Selinger 2001-2017
</metadata>
<g transform="translate(0.000000,700.000000) scale(0.100000,-0.100000)"
fill="#000000" stroke="none">
<path d="M2431 5605 l-265 -262 532 1 c466 1 532 -1 533 -14 0 -8 1 -125 2
-258 2 -208 0 -245 -13 -251 -8 -4 -368 -6 -800 -6 l-785 2 -210 -208 c-115
-114 -295 -291 -399 -393 -158 -156 -187 -188 -176 -201 12 -14 460 -460 663
-659 59 -58 115 -109 125 -114 9 -4 312 -7 672 -7 l655 1 0 264 0 264 -532 1
c-292 0 -534 2 -536 5 -3 3 -60 58 -126 122 -66 65 -123 123 -126 129 -4 5 52
68 125 140 l132 129 1732 0 1731 0 263 258 c144 142 262 260 262 263 0 3 -478
5 -1062 5 l-1061 0 -1 247 c-1 136 2 255 5 264 5 15 34 16 266 16 l261 0 269
263 268 264 -1070 -1 -1070 -1 -264 -263z"/>
<path d="M3238 4026 c0 -1 -2 -291 -4 -646 -1 -355 -3 -651 -3 -657 -1 -10
-168 -13 -798 -13 l-798 0 -262 -258 c-145 -142 -263 -260 -263 -263 0 -3 958
-5 2129 -5 l2129 0 159 158 c87 87 266 264 399 394 l240 237 -65 64 c-36 36
-212 210 -391 387 -179 178 -334 327 -345 332 -12 6 -280 9 -675 9 l-655 -1
-1 -264 -2 -265 533 0 534 1 130 -129 c72 -70 131 -131 131 -135 0 -3 -59 -63
-131 -134 l-131 -128 -667 0 -666 0 0 657 0 658 -262 1 c-145 1 -264 1 -265 0z"/>
<path d="M3324 1922 l-91 -3 1 -129 1 -130 -35 -1 c-19 0 -139 -1 -267 -1
l-231 -1 -269 -263 -268 -264 1068 0 1067 0 267 264 266 263 -531 -1 c-347 -1
-533 2 -535 9 -2 6 -2 65 -1 132 l1 122 -176 3 c-97 2 -217 2 -267 0z"/>
</g>
</svg>
