<svg width="600" height="664" viewBox="0 0 600 664" fill="none" xmlns="http://www.w3.org/2000/svg">
<g clip-path="url(#clip0_1317_23073)">
<circle opacity="0.4" cx="410" cy="174" r="101" fill="white"/>
<rect opacity="0.75" x="419" y="299" width="141" height="64" rx="32" fill="white"/>
<path d="M64 573C64 564.163 71.1634 557 80 557H456C464.837 557 472 564.163 472 573V601C472 609.837 464.837 617 456 617H80C71.1634 617 64 609.837 64 601V573Z" fill="#b0e13d"/>
<path d="M64 573C64 564.163 71.1634 557 80 557H456C464.837 557 472 564.163 472 573V601C472 609.837 464.837 617 456 617H80C71.1634 617 64 609.837 64 601V573Z" fill="black" fill-opacity="0.2" style="mix-blend-mode:multiply"/>
<path d="M100 286C100 179.961 185.961 94 292 94H316V557H100V286Z" fill="#b0e13d"/>
<path d="M100 286C100 179.961 185.961 94 292 94H316V557H100V286Z" fill="black" fill-opacity="0.2" style="mix-blend-mode:multiply"/>
<path fill-rule="evenodd" clip-rule="evenodd" d="M292 94C185.961 94 100 179.961 100 286V557H108V286C108 179.961 193.961 94 300 94H292ZM88 557H80C71.1634 557 64 564.163 64 573V601C64 609.837 71.1634 617 80 617H88C79.1634 617 72 609.837 72 601V573C72 564.163 79.1634 557 88 557Z" fill="#b0e13d"/>
<path fill-rule="evenodd" clip-rule="evenodd" d="M292 94C185.961 94 100 179.961 100 286V557H108V286C108 179.961 193.961 94 300 94H292ZM88 557H80C71.1634 557 64 564.163 64 573V601C64 609.837 71.1634 617 80 617H88C79.1634 617 72 609.837 72 601V573C72 564.163 79.1634 557 88 557Z" fill="white" style="mix-blend-mode:multiply"/>
<rect x="112" y="556" width="416" height="60" rx="16" fill="#b0e13d"/>
<path d="M140 273.859C140 174.447 220.589 93.8587 320 93.8587V93.8587C419.411 93.8587 500 174.447 500 273.859V573.137H140V273.859Z" fill="#b0e13d"/>
<path d="M128 556C119.163 556 112 563.163 112 572V580C112 571.163 119.163 564 128 564H512C520.837 564 528 571.163 528 580V572C528 563.163 520.837 556 512 556H128Z" fill="white"/>
<path d="M156 273.835C156 183.26 229.425 109.835 320 109.835V109.835C410.575 109.835 484 183.26 484 273.835V529.314C484 544.141 471.98 556.161 457.153 556.161H182.847C168.02 556.161 156 544.141 156 529.314V273.835Z" fill="#b0e13d"/>
<path d="M189.601 198.781C215.278 168.784 253.419 149.774 296 149.774C373.32 149.774 436 212.455 436 289.774V554.006C449.493 552.556 460 547.132 460 533.254V249.835C460 172.515 397.32 109.835 320 109.835C260.695 109.835 210.003 146.709 189.601 198.781Z" fill="#b0e13d"/>
<path d="M189.601 198.781C215.278 168.784 253.419 149.774 296 149.774C373.32 149.774 436 212.455 436 289.774V554.006C449.493 552.556 460 547.132 460 533.254V249.835C460 172.515 397.32 109.835 320 109.835C260.695 109.835 210.003 146.709 189.601 198.781Z" fill="black" fill-opacity="0.2" style="mix-blend-mode:multiply"/>
<path d="M472 273.835V544H168V273.835C168 189.887 236.053 121.835 320 121.835C403.947 121.835 472 189.887 472 273.835Z" stroke="white" stroke-width="24"/>
<g opacity="0.4">
<path d="M222.602 421.412V409.805L251.75 363.953H261.773V380.02H255.841L237.466 409.056V409.6H278.886V421.412H222.602ZM256.113 433.666V417.872L256.386 412.732V363.953H270.227V433.666H256.113Z" fill="#001418"/>
<path d="M311.296 435.198C305.433 435.175 300.387 433.734 296.16 430.875C291.955 428.016 288.717 423.874 286.444 418.451C284.194 413.027 283.08 406.503 283.103 398.878C283.103 391.276 284.228 384.797 286.478 379.441C288.751 374.086 291.99 370.012 296.194 367.221C300.421 364.407 305.455 363 311.296 363C317.137 363 320.876 363 325 363C329.227 365.814 333.842 374.12 336.115 379.475C338.387 384.808 339.512 391.276 339.49 398.878C339.49 406.525 338.353 413.061 336.08 418.485C333.83 423.908 330.205 432.339 326 435.198C322.785 435.198 317.16 435.198 311.296 435.198ZM311.296 422.978C315.296 422.978 318.49 420.97 320.876 416.953C323.262 412.936 324.444 406.911 324.421 398.878C324.421 393.59 323.876 389.188 322.785 385.67C321.717 382.153 320.194 379.509 318.217 377.739C316.262 375.969 313.955 375.084 311.296 375.084C307.319 375.084 304.137 377.07 301.751 381.041C299.365 385.012 298.16 390.958 298.137 398.878C298.137 404.233 298.671 408.704 299.74 412.289C300.83 415.852 302.365 418.53 304.342 420.323C306.319 422.093 308.637 422.978 311.296 422.978Z" fill="#001418"/>
<path d="M344.158 421.412V409.805L373.306 363.953H383.329V380.02H377.397L359.022 409.056V409.6H400.442V421.412H344.158ZM377.67 433.666V417.872L377.942 412.732V363.953H391.783V433.666H377.67Z" fill="#001418"/>
</g>
<path d="M234.602 421.412V409.805L263.75 363.953H273.773V380.02H267.841L249.466 409.056V409.6H290.886V421.412H234.602ZM268.113 433.666V417.872L268.386 412.732V363.953H282.227V433.666H268.113Z" fill="white"/>
<path d="M323.296 435.198C317.433 435.175 312.387 433.734 308.16 430.875C303.955 428.016 300.717 423.874 298.444 418.451C296.194 413.027 295.08 406.503 295.103 398.878C295.103 391.276 296.228 384.797 298.478 379.441C300.751 374.086 303.99 370.012 308.194 367.221C312.421 364.407 317.455 363 323.296 363C329.137 363 334.16 364.407 338.365 367.221C342.592 370.035 345.842 374.12 348.115 379.475C350.387 384.808 351.512 391.276 351.49 398.878C351.49 406.525 350.353 413.061 348.08 418.485C345.83 423.908 342.603 428.05 338.399 430.909C334.194 433.768 329.16 435.198 323.296 435.198ZM323.296 422.978C327.296 422.978 330.49 420.97 332.876 416.953C335.262 412.936 336.444 406.911 336.421 398.878C336.421 393.59 335.876 389.188 334.785 385.67C333.717 382.153 332.194 379.509 330.217 377.739C328.262 375.969 325.955 375.084 323.296 375.084C319.319 375.084 316.137 377.07 313.751 381.041C311.365 385.012 310.16 390.958 310.137 398.878C310.137 404.233 310.671 408.704 311.74 412.289C312.83 415.852 314.365 418.53 316.342 420.323C318.319 422.093 320.637 422.978 323.296 422.978Z" fill="white"/>
<path d="M356.158 421.412V409.805L385.306 363.953H395.329V380.02H389.397L371.022 409.056V409.6H412.442V421.412H356.158ZM389.67 433.666V417.872L389.942 412.732V363.953H403.783V433.666H389.67Z" fill="white"/>
<rect opacity="0.5" x="51" y="443" width="77" height="24" rx="12" fill="white"/>
<rect opacity="0.75" x="19" y="395" width="197" height="40" rx="20" fill="white"/>
<rect opacity="0.75" x="435" y="309" width="109" height="32" rx="16" fill="white"/>
<g style="mix-blend-mode:multiply" opacity="0.3">
<path fill-rule="evenodd" clip-rule="evenodd" d="M358 248.5C358 254.531 356.943 260.315 355.003 265.678C360.98 269.136 365 275.599 365 283C365 294.046 356.046 303 345 303H340.6C340.862 304.292 341 305.63 341 307C341 318.046 332.046 327 321 327H294C282.954 327 274 318.046 274 307C274 305.63 274.138 304.292 274.4 303H270C258.954 303 250 294.046 250 283C250 275.599 254.02 269.136 259.997 265.678C258.057 260.315 257 254.531 257 248.5C257 220.61 279.61 198 307.5 198C335.39 198 358 220.61 358 248.5Z" fill="#001418"/>
</g>
<path fill-rule="evenodd" clip-rule="evenodd" d="M378 248.5C378 254.531 376.943 260.315 375.003 265.678C380.98 269.136 385 275.599 385 283C385 294.046 376.046 303 365 303H360.6C360.862 304.292 361 305.63 361 307C361 318.046 352.046 327 341 327H314C302.954 327 294 318.046 294 307C294 305.63 294.138 304.292 294.4 303H290C278.954 303 270 294.046 270 283C270 275.599 274.02 269.136 279.997 265.678C278.057 260.315 277 254.531 277 248.5C277 220.61 299.61 198 327.5 198C355.39 198 378 220.61 378 248.5Z" fill="white"/>
<path d="M322 262C322 268.627 316.627 274 310 274C303.373 274 298 268.627 298 262C298 255.373 303.373 250 310 250C316.627 250 322 255.373 322 262Z" fill="#b0e13d"/>
<path d="M362 262C362 268.627 356.627 274 350 274C343.373 274 338 268.627 338 262C338 255.373 343.373 250 350 250C356.627 250 362 255.373 362 262Z" fill="#b0e13d"/>
<g style="mix-blend-mode:multiply" opacity="0.3">
<path d="M306.5 273.482C311.42 271.984 315 267.41 315 262C315 256.59 311.42 252.016 306.5 250.518C307.607 250.181 308.782 250 310 250C316.627 250 322 255.373 322 262C322 268.627 316.627 274 310 274C308.782 274 307.607 273.819 306.5 273.482Z" fill="#001418"/>
<path d="M346.5 273.482C351.42 271.984 355 267.41 355 262C355 256.59 351.42 252.016 346.5 250.518C347.607 250.181 348.782 250 350 250C356.627 250 362 255.373 362 262C362 268.627 356.627 274 350 274C348.782 274 347.607 273.819 346.5 273.482Z" fill="#001418"/>
</g>
<path d="M136 329V308H151L136 329Z" fill="#b0e13d"/>
<path d="M136 329V308H151L136 329Z" fill="black" fill-opacity="0.2" style="mix-blend-mode:multiply"/>
<rect x="-20" y="616" width="641" height="48" fill="#b0e13d"/>
<rect x="-20" y="616" width="641" height="48" fill="black" fill-opacity="0.2" style="mix-blend-mode:multiply"/>
<circle opacity="0.5" cx="108" cy="155" r="12" fill="white"/>
<circle opacity="0.5" cx="164" cy="107" r="4" fill="white"/>
<path d="M402 575C402 575 376.5 591 385 616H414.5C410 601.5 427.5 582 427.5 582C427.5 582 407 586 402 607.5C394.5 592.5 402 575 402 575Z" fill="b0e13d"/>
<path d="M392.5 606.5L369 594.5C375 612.5 379 619.167 379 623H387L392.5 606.5Z" fill="b0e13d"/>
<rect opacity="0.4" x="216" y="467" width="186" height="24" rx="12" fill="#001418"/>
<rect x="232" y="467" width="186" height="24" rx="12" fill="white"/>
<path d="M145 500L51 617.5" stroke="white" stroke-width="8" stroke-linecap="round"/>
<path d="M124 601.5C124 601.5 112.5 537.5 64 601.5" stroke="white" stroke-width="8" stroke-linecap="round"/>
<path d="M145 500L121 615" stroke="white" stroke-width="8" stroke-linecap="round"/>
<path d="M145 500L100.5 590" stroke="white" stroke-width="8" stroke-linecap="round"/>
</g>
<defs>
<clipPath id="clip0_1317_23073">
<rect width="600" height="664" fill="white"/>
</clipPath>
</defs>
</svg>
