<svg width="739" height="798" viewBox="0 0 739 798" fill="none" xmlns="http://www.w3.org/2000/svg">
<g clip-path="url(#clip0_1524_25704)">
<path d="M0 134C0 59.9938 59.9938 0 134 0C208.006 0 268 59.9938 268 134C268 208.006 208.006 268 134 268C59.9938 268 0 208.006 0 134Z" fill="#EBFFEA"/>
<path d="M0 549.5C0 412.257 111.257 301 248.5 301C248.669 301 248.839 301 249.008 301.001C250.082 166.611 359.357 58 494 58C629.31 58 739 167.69 739 303C739 437.31 630.925 546.377 496.995 547.982C496.998 548.488 497 548.994 497 549.5C497 686.743 385.743 798 248.5 798C111.257 798 0 686.743 0 549.5Z" fill="#EBFFEA"/>
</g>
<defs>
<clipPath id="clip0_1524_25704">
<rect width="739" height="798" fill="white"/>
</clipPath>
</defs>
</svg>
